<svg width="64" height="64" viewBox="0 0 64 64" fill="none" xmlns="http://www.w3.org/2000/svg">
  <!-- Square Icon Version - Perfect for Favicon -->
  <rect width="64" height="64" rx="12" fill="#3b82f6"/>
  
  <!-- N Letter -->
  <path d="M 15 18 L 15 46 L 20 46 L 20 28 L 32 46 L 37 46 L 37 18 L 32 18 L 32 36 L 20 18 Z" 
        fill="white" stroke="white" stroke-width="0.5"/>
  
  <!-- R Letter -->
  <path d="M 42 18 L 42 46 L 47 46 L 47 34 L 52 34 L 56 46 L 61 46 L 56 33 Q 60 30 60 25 Q 60 18 54 18 Z M 47 23 L 54 23 Q 56 23 56 26 Q 56 29 54 29 L 47 29 Z" 
        fill="white" stroke="white" stroke-width="0.5"/>
  
  <!-- Decorative Elements -->
  <circle cx="39" cy="32" r="2.5" fill="none" stroke="#e0e7ff" stroke-width="1.5" opacity="0.8"/>
  <circle cx="39" cy="32" r="1" fill="#e0e7ff" opacity="0.6"/>
</svg>
